# xmcd CD database file
#
# Track frame offsets:
#	150
#	6974
#	21739
#	39248
#	57020
#	72728
#	99400
#	102193
#	118225
#	136036
#	154399
#	171355
#	181354
#
# Disc length: 2473 seconds
#
# Revision: 2
# Processed by: cddbd v1.5.2PL0 Copyright (c) Steve Scherf et al.
# Submitted via: CDex 1.51
#
DISCID=b409a70d
DTITLE=St. Paul and The Broken Bones - Sea Of Noise
DYEAR=2016
DGENRE=Pop
TTITLE0=Crumbling Light Post, Part 1
TTITLE1=Flow With It
TTITLE2=Midnight On Earth
TTITLE3=I'll Be Your Woman
TTITLE4=All I Ever Wonder
TTITLE5=Sanctify
TTITLE6=Crumbling Light Post, Part 2
TTITLE7=Waves
TTITLE8=Brain Matter
TTITLE9=Burning Rome
TTITLE10=Tears In The Diamond
TTITLE11=Is It Me
TTITLE12=Crumbling Light Post, Part 3
EXTD=YEAR: 2016
EXTT0=
EXTT1=
EXTT2=
EXTT3=
EXTT4=
EXTT5=
EXTT6=
EXTT7=
EXTT8=
EXTT9=
EXTT10=
EXTT11=
EXTT12=
PLAYORDER=
